<?xml version="1.0" encoding="iso-8859-1"?>
<!-- Uploaded to: SVG Repo, www.svgrepo.com, Generator: SVG Repo Mixer Tools -->
<svg fill="#000000" height="800px" width="800px" version="1.1" id="Layer_1" xmlns="http://www.w3.org/2000/svg" xmlns:xlink="http://www.w3.org/1999/xlink" 
	 viewBox="0 0 512 512" xml:space="preserve">
<g>
	<g>
		<path d="M256,64.092c-9.139,0-16.574,7.433-16.574,16.57c0,9.137,7.435,16.57,16.574,16.57c3.12,0,5.65-2.529,5.65-5.649
			c0-3.119-2.53-5.649-5.65-5.649c-2.908,0-5.274-2.365-5.274-5.271c0-2.908,2.366-5.274,5.274-5.274
			c2.907,0,5.274,2.366,5.274,5.273c0,3.12,2.529,5.649,5.65,5.649c3.121,0,5.65-2.529,5.65-5.649
			C272.573,71.525,265.139,64.092,256,64.092z"/>
	</g>
</g>
<g>
	<g>
		<path d="M111.114,172.665H97.363c-4.301,0-7.788,3.486-7.788,7.786s3.487,7.786,7.788,7.786h13.752
			c4.301,0,7.788-3.486,7.788-7.786C118.901,176.15,115.415,172.665,111.114,172.665z"/>
	</g>
</g>
<g>
	<g>
		<path d="M78.699,194.464H64.947c-4.301,0-7.788,3.486-7.788,7.786c0,4.3,3.486,7.786,7.788,7.786h13.752
			c4.301,0,7.788-3.486,7.788-7.786C86.486,197.95,82.999,194.464,78.699,194.464z"/>
	</g>
</g>
<g>
	<g>
		<path d="M144.512,194.464H130.76c-4.301,0-7.788,3.486-7.788,7.786c0,4.3,3.487,7.786,7.788,7.786h13.753
			c4.301,0,7.788-3.486,7.788-7.786C152.299,197.95,148.813,194.464,144.512,194.464z"/>
	</g>
</g>
<g>
	<g>
		<path d="M223.094,172.665h-13.752c-4.301,0-7.788,3.486-7.788,7.786s3.487,7.786,7.788,7.786h13.752
			c4.301,0,7.788-3.486,7.788-7.786C230.881,176.15,227.395,172.665,223.094,172.665z"/>
	</g>
</g>
<g>
	<g>
		<path d="M190.678,194.464h-13.752c-4.301,0-7.788,3.486-7.788,7.786c0,4.3,3.486,7.786,7.788,7.786h13.752
			c4.301,0,7.788-3.486,7.788-7.786C198.466,197.95,194.979,194.464,190.678,194.464z"/>
	</g>
</g>
<g>
	<g>
		<path d="M256.492,194.464h-13.753c-4.301,0-7.788,3.486-7.788,7.786c0,4.3,3.487,7.786,7.788,7.786h13.753
			c4.301,0,7.788-3.486,7.788-7.786C264.28,197.95,260.793,194.464,256.492,194.464z"/>
	</g>
</g>
<g>
	<g>
		<path d="M335.074,172.665h-13.752c-4.301,0-7.788,3.486-7.788,7.786s3.487,7.786,7.788,7.786h13.752
			c4.301,0,7.788-3.486,7.788-7.786C342.861,176.15,339.375,172.665,335.074,172.665z"/>
	</g>
</g>
<g>
	<g>
		<path d="M302.658,194.464h-13.752c-4.301,0-7.788,3.486-7.788,7.786c0,4.3,3.487,7.786,7.788,7.786h13.752
			c4.301,0,7.788-3.486,7.788-7.786C310.445,197.95,306.96,194.464,302.658,194.464z"/>
	</g>
</g>
<g>
	<g>
		<path d="M368.471,194.464h-13.752c-4.301,0-7.788,3.486-7.788,7.786c0,4.3,3.487,7.786,7.788,7.786h13.752
			c4.301,0,7.788-3.486,7.788-7.786C376.258,197.95,372.772,194.464,368.471,194.464z"/>
	</g>
</g>
<g>
	<g>
		<path d="M447.053,172.665h-13.752c-4.301,0-7.787,3.486-7.787,7.786s3.486,7.786,7.787,7.786h13.752
			c4.301,0,7.788-3.486,7.788-7.786C454.841,176.15,451.354,172.665,447.053,172.665z"/>
	</g>
</g>
<g>
	<g>
		<path d="M414.637,194.464h-13.752c-4.301,0-7.788,3.486-7.788,7.786c0,4.3,3.487,7.786,7.788,7.786h13.752
			c4.301,0,7.787-3.486,7.787-7.786C422.424,197.95,418.939,194.464,414.637,194.464z"/>
	</g>
</g>
<g>
	<g>
		<path d="M500.849,395.725c1.488-3.075,2.324-6.523,2.324-10.163c0-6.431-2.609-12.264-6.822-16.499
			c4.871-5.281,7.86-12.321,7.86-20.055c0-5.66-1.605-10.948-4.372-15.451c7.243-4.002,12.162-11.715,12.162-20.558
			c0-9.983-6.267-18.524-15.072-21.911c0.011-0.335,0.04-0.667,0.04-1.003c0-8.317-3.547-15.818-9.204-21.081
			c0.002-0.117,0.01-0.233,0.01-0.35v-25.891c2.936-0.785,5.66-2.323,7.814-4.505c3.204-3.247,5.007-7.723,4.944-12.279
			c-0.3-23.019-9.49-44.612-25.878-60.802c-16.405-16.205-38.141-25.13-61.204-25.13H377.08c-10.079,0-19.898,1.715-29.133,4.987
			c-9.247-3.28-19.084-4.987-29.175-4.987h-36.373c-6.316,0-12.53,0.675-18.564,1.983v-18.43c4.375-0.797,8.62-2.254,12.545-4.328
			c3.825-2.023,5.287-6.765,3.264-10.591c-2.023-3.824-6.762-5.288-10.591-3.264c-4.045,2.139-8.438,3.224-13.055,3.224
			c-15.431,0-27.985-12.55-27.985-27.977s12.554-27.977,27.985-27.977c13.573,0,24.917,9.711,27.452,22.548
			c0.348,1.758,0.534,3.573,0.534,5.429c0,4.328,3.508,7.837,7.837,7.837c4.329,0,7.837-3.509,7.837-7.837
			c0-1.84-0.128-3.649-0.35-5.429C296.626,53.718,278.233,37.011,256,37.011c-24.074,0-43.659,19.581-43.659,43.651
			c0,21.394,15.478,39.229,35.822,42.933v19.825c-7.733-2.212-15.813-3.375-24.07-3.375h-36.372
			c-10.078,0-19.896,1.716-29.132,4.987c-9.247-3.279-19.085-4.987-29.176-4.987H93.043c-23.066,0-44.802,8.926-61.205,25.13
			C15.453,181.363,6.262,202.956,5.96,225.977c-0.06,4.558,1.743,9.033,4.946,12.279c3.203,3.244,7.656,5.106,12.216,5.106h1.104
			v21.225c-9.162,4.828-15.424,14.443-15.424,25.497c0,1.469,0.122,2.917,0.343,4.344C3.588,298.724,0,305.448,0,312.998
			c0,8.843,4.917,16.556,12.162,20.558c-2.767,4.502-4.372,9.791-4.372,15.452c0,7.734,2.989,14.775,7.86,20.055
			c-4.213,4.235-6.822,10.068-6.822,16.499c0,3.639,0.836,7.088,2.324,10.163c-2.013,1.137-3.835,2.629-5.343,4.473
			c-3.595,4.402-5.005,10.12-3.869,15.685c6.983,34.249,37.435,59.106,72.407,59.106h43.727c4.328,0,7.837-3.509,7.837-7.837
			c0-4.328-3.509-7.837-7.837-7.837H74.347c-27.556,0-51.549-19.583-57.05-46.566c-0.167-2.25,0.869-3.516,3.109-3.801
			l348.038,0.023l32.022,32.015c3.442,3.44,8.018,5.334,12.883,5.334s9.44-1.894,12.883-5.335l32.021-32.014l33.343-0.023
			c1.973,0,3.504,1.868,3.11,3.802c-5.5,26.981-29.493,46.565-57.05,46.565H156.735c-4.328,0-7.837,3.509-7.837,7.837
			s3.509,7.837,7.837,7.837h280.919c34.975,0,65.425-24.858,72.407-59.108c1.136-5.567-0.276-11.284-3.871-15.685
			C504.683,398.353,502.86,396.862,500.849,395.725z M23.122,227.688c-0.402,0-0.779-0.157-1.061-0.442
			c-0.278-0.282-0.435-0.67-0.43-1.064c0.248-18.876,7.784-36.582,21.222-49.857c13.45-13.288,31.275-20.606,50.19-20.606h36.371
			c18.914,0,36.739,7.318,50.19,20.606c3.08,3.042,8.041,3.01,11.082-0.067c3.042-3.079,3.011-8.04-0.067-11.082
			c-3.364-3.323-6.962-6.322-10.739-9.019c2.587-0.285,5.203-0.439,7.843-0.439h36.372c18.914,0,36.738,7.318,50.19,20.606
			c3.076,3.041,8.039,3.01,11.082-0.067c3.041-3.079,3.011-8.042-0.068-11.082c-3.364-3.323-6.962-6.322-10.739-9.019
			c2.588-0.285,5.204-0.439,7.843-0.439h36.373c18.914,0,36.737,7.318,50.189,20.606c3.076,3.041,8.038,3.01,11.083-0.067
			c3.041-3.079,3.011-8.04-0.068-11.082c-3.364-3.323-6.962-6.322-10.74-9.019c2.588-0.285,5.204-0.439,7.844-0.439h36.371
			c18.913,0,36.737,7.318,50.189,20.606c13.438,13.276,20.974,30.982,21.222,49.859c0.005,0.393-0.151,0.779-0.428,1.061
			c-0.278,0.282-0.665,0.443-1.061,0.443H23.122z M46.596,280.528c3.017,2.837,7.72,2.837,10.736,0.001
			c2.456-2.308,5.645-3.579,8.983-3.579c3.34,0,6.53,1.271,8.983,3.578c3.017,2.837,7.719,2.837,10.736,0.001
			c2.456-2.308,5.646-3.579,8.983-3.579c3.338,0,6.53,1.271,8.983,3.579c3.017,2.836,7.72,2.837,10.736,0.001
			c2.456-2.308,5.646-3.579,8.984-3.579c3.339,0,6.529,1.271,8.983,3.579c3.017,2.836,7.72,2.837,10.736,0.001
			c2.456-2.308,5.645-3.579,8.983-3.579s6.53,1.271,8.984,3.579c3.017,2.836,7.72,2.837,10.736,0.001
			c2.456-2.308,5.645-3.579,8.983-3.579c3.339,0,6.53,1.271,8.983,3.578c3.016,2.837,7.719,2.837,10.736,0.001
			c2.456-2.308,5.646-3.579,8.983-3.579c3.338,0,6.529,1.271,8.982,3.578c3.017,2.837,7.719,2.837,10.735,0.002
			c2.457-2.308,5.648-3.58,8.985-3.58c3.339,0,6.529,1.271,8.982,3.578c3.016,2.837,7.72,2.837,10.736,0.001
			c2.456-2.308,5.646-3.579,8.984-3.579s6.53,1.271,8.984,3.579c3.017,2.837,7.72,2.836,10.735,0.001
			c2.456-2.308,5.646-3.579,8.984-3.579c3.338,0,6.531,1.271,8.986,3.579c3.017,2.837,7.72,2.836,10.735-0.001
			c2.454-2.307,5.643-3.579,8.983-3.579c3.337,0,6.529,1.271,8.984,3.579c3.017,2.837,7.72,2.836,10.735-0.001
			c2.454-2.307,5.645-3.579,8.984-3.579c3.337,0,6.529,1.271,8.984,3.579c3.017,2.836,7.719,2.836,10.734,0
			c2.456-2.308,5.646-3.579,8.984-3.579s6.53,1.271,8.985,3.579c3.017,2.837,7.72,2.836,10.735-0.001
			c2.454-2.307,5.643-3.579,8.983-3.579c3.338,0,6.53,1.271,8.985,3.579c3.017,2.836,7.719,2.836,10.734,0
			c2.456-2.308,5.646-3.579,8.984-3.579c3.337,0,6.529,1.272,8.985,3.58c3.019,2.835,7.719,2.835,10.734-0.001
			c2.456-2.308,5.646-3.579,8.984-3.579c7.055,0,12.815,5.593,13.109,12.575H24.503c0.296-6.982,6.053-12.575,13.109-12.575
			C40.952,276.949,44.143,278.221,46.596,280.528z M39.899,261.376v-18.015h432.202v18.191c-1.29-0.177-2.605-0.277-3.943-0.277
			c-5.09,0-10.017,1.337-14.351,3.84c-4.334-2.504-9.262-3.84-14.352-3.84c-5.09,0-10.017,1.336-14.351,3.84
			c-4.333-2.504-9.261-3.84-14.352-3.84c-5.091,0-10.018,1.336-14.351,3.84c-4.334-2.504-9.261-3.84-14.352-3.84
			c-5.09,0-10.017,1.336-14.351,3.84c-4.333-2.504-9.261-3.84-14.351-3.84c-5.091,0-10.018,1.336-14.352,3.84
			c-4.334-2.504-9.261-3.84-14.351-3.84c-5.091,0-10.018,1.336-14.351,3.84c-4.335-2.504-9.262-3.84-14.353-3.84
			c-5.09,0-10.017,1.336-14.351,3.84c-4.333-2.504-9.261-3.84-14.352-3.84c-5.09,0-10.016,1.336-14.351,3.84
			c-4.333-2.504-9.26-3.84-14.352-3.84c-5.09,0-10.016,1.336-14.351,3.84c-4.333-2.504-9.261-3.84-14.352-3.84
			c-5.091,0-10.016,1.336-14.351,3.84c-4.334-2.504-9.261-3.84-14.353-3.84c-5.091,0-10.017,1.337-14.351,3.84
			c-4.334-2.504-9.261-3.84-14.352-3.84c-5.091,0-10.017,1.336-14.351,3.84c-4.333-2.504-9.26-3.84-14.351-3.84
			c-5.091,0-10.018,1.336-14.352,3.84c-4.333-2.504-9.261-3.84-14.352-3.84s-10.016,1.336-14.351,3.84
			c-4.333-2.504-9.261-3.84-14.353-3.84c-5.091,0-10.017,1.336-14.351,3.84C48.284,262.989,44.173,261.716,39.899,261.376z
			 M152.608,362.154H32.769c-5.414-1.925-9.307-7.083-9.307-13.147c0-7.699,6.266-13.963,13.968-13.963h115.605
			c-2.237,4.163-3.514,8.915-3.514,13.963C149.522,353.728,150.637,358.19,152.608,362.154z M479.761,393.296h-24.755
			c-2.078,0-4.072,0.826-5.541,2.295l-34.315,34.307c-0.963,0.963-2.643,0.961-3.604,0.001l-34.316-34.308
			c-1.469-1.469-3.463-2.295-5.541-2.295H32.239c-4.267,0-7.739-3.47-7.739-7.734s3.471-7.734,7.739-7.734h447.52
			c4.267,0,7.739,3.469,7.739,7.734C487.499,389.827,484.027,393.296,479.761,393.296z M165.195,349.008
			c0-7.699,6.266-13.963,13.968-13.963h153.673c7.702,0,13.968,6.264,13.968,13.963c0,6.064-3.893,11.222-9.306,13.147H174.501
			C169.088,360.23,165.195,355.071,165.195,349.008z M479.232,362.154H359.393c1.972-3.964,3.087-8.426,3.087-13.147
			c0-5.048-1.277-9.8-3.514-13.963h115.605c7.702,0,13.967,6.264,13.967,13.963C488.537,355.071,484.643,360.23,479.232,362.154z
			 M488.523,320.798H23.478c-4.303,0-7.804-3.499-7.804-7.799c0-4.301,3.501-7.8,7.804-7.8h465.045c4.303,0,7.803,3.499,7.803,7.8
			C496.327,317.299,492.826,320.798,488.523,320.798z"/>
	</g>
</g>
</svg>