<?xml version="1.0" encoding="iso-8859-1"?>
<!-- Uploaded to: SVG Repo, www.svgrepo.com, Generator: SVG Repo Mixer Tools -->
<svg height="800px" width="800px" version="1.1" id="Layer_1" xmlns="http://www.w3.org/2000/svg" xmlns:xlink="http://www.w3.org/1999/xlink" 
	 viewBox="0 0 512 512" xml:space="preserve">
<g>
	<path style="fill:#FEE187;" d="M473.766,276.127H38.234c-7.687,0-13.917-6.23-13.917-13.917v-30.8
		c0-7.687,6.23-13.917,13.917-13.917h435.532c7.687,0,13.917,6.23,13.917,13.917v30.8
		C487.683,269.897,481.453,276.127,473.766,276.127z"/>
	<path style="fill:#FEE187;" d="M181.618,95.458l-65.803,65.803c-8.7,8.7-22.817,8.7-31.517,0c-8.713-8.713-8.713-22.817,0-31.531
		l33.57-33.57c4.188-0.473,8.443-0.702,12.753-0.702L181.618,95.458L181.618,95.458z"/>
	<path style="fill:#FEE187;" d="M332.584,95.458l-65.803,65.803c-8.7,8.7-22.817,8.7-31.517,0c-8.713-8.713-8.713-22.817,0-31.531
		l34.273-34.273H332.584z"/>
	<path style="fill:#FEE187;" d="M456.382,122.625l-38.636,38.636c-8.7,8.7-22.817,8.7-31.517,0c-8.713-8.713-8.713-22.817,0-31.531
		l29.234-29.234C430.634,105.103,444.508,112.709,456.382,122.625z"/>
</g>
<path style="fill:#FFC61B;" d="M512,217.5v-4.931c0-38.842-17.116-75.406-46.959-100.314c-1.69-1.41-3.407-2.775-5.154-4.092
	c-12.223-9.22-25.818-16.135-40.489-20.589c-0.001,0-0.003,0-0.004-0.001c-0.001,0-0.004-0.001-0.007-0.003
	c-0.001,0-0.004,0-0.005-0.001c-12.25-3.729-25.035-5.62-38.003-5.62h-48.795h-63.048h-87.918h-50.997
	c-4.839,0-9.639,0.265-14.202,0.781c-0.008,0.001-0.015,0.003-0.023,0.003c-0.014,0.001-0.028,0.003-0.042,0.004
	c-0.02,0.003-0.039,0.007-0.058,0.009C49.987,89.967,0,145.757,0,212.569v4.931c0,6.548,4.658,12.004,10.841,13.243
	c-0.005,0.224-0.034,0.442-0.034,0.667v30.8c0,5.084,1.414,9.831,3.835,13.917c-2.421,4.087-3.835,8.835-3.835,13.919v30.798
	c0,0.24,0.03,0.473,0.036,0.712C4.659,322.795,0,328.253,0,334.801c0,52.521,42.73,95.251,95.251,95.251h321.498
	c52.521,0,95.251-42.73,95.251-95.251c0-6.548-4.659-12.006-10.844-13.243c0.007-0.239,0.036-0.471,0.036-0.712v-30.8
	c0-5.084-1.414-9.832-3.835-13.917c2.419-4.087,3.835-8.834,3.835-13.917v-30.8c0-0.226-0.028-0.443-0.034-0.667
	C507.341,229.504,512,224.048,512,217.5z M395.783,139.283l23.237-23.239c0.42,0.163,0.844,0.32,1.263,0.489
	c0.643,0.261,1.285,0.526,1.921,0.798c0.886,0.38,1.766,0.775,2.64,1.179c0.619,0.286,1.237,0.571,1.849,0.869
	c0.889,0.432,1.768,0.886,2.645,1.346c0.577,0.303,1.159,0.597,1.731,0.911c0.931,0.509,1.847,1.047,2.763,1.586
	c0.498,0.293,1.004,0.575,1.498,0.878c0.097,0.059,0.19,0.126,0.288,0.185l-27.422,27.424c-1.658,1.656-3.861,2.568-6.207,2.568
	c-2.347,0-4.55-0.912-6.206-2.568c-1.663-1.662-2.579-3.869-2.579-6.213C393.203,143.152,394.118,140.946,395.783,139.283z
	 M299.97,108.967l-42.741,42.742c-1.656,1.656-3.861,2.568-6.206,2.568c-2.347,0-4.551-0.912-6.206-2.568
	c-3.426-3.426-3.426-9,0-12.426l30.316-30.316H299.97z M149.004,108.967l-42.742,42.742c-1.656,1.656-3.86,2.568-6.206,2.568
	c-2.345,0-4.55-0.912-6.206-2.568c-3.426-3.426-3.426-9,0-12.426l30.093-30.093c0.151-0.009,0.301-0.022,0.453-0.031
	c0.688-0.042,1.379-0.073,2.072-0.1c0.342-0.014,0.682-0.031,1.025-0.042c1.037-0.031,2.08-0.05,3.127-0.05H149.004z
	 M67.702,130.182c-6.271,13.286-3.927,29.661,7.044,40.632c6.759,6.759,15.749,10.482,25.311,10.482
	c9.563,0,18.552-3.723,25.311-10.482l61.847-61.847h49.707l-11.211,11.211c-13.959,13.959-13.959,36.675,0,50.635
	c6.759,6.759,15.749,10.482,25.311,10.482c9.562,0,18.551-3.722,25.311-10.482l61.847-61.847h43.2c2.11,0,4.211,0.078,6.305,0.204
	l-11.006,11.007c-6.767,6.765-10.494,15.757-10.494,25.318s3.727,18.551,10.493,25.318c6.759,6.759,15.748,10.482,25.311,10.482
	c9.562,0,18.551-3.722,25.311-10.482l29.372-29.372c16.152,17.078,26.023,39.058,27.959,62.549h-10.733
	c-0.043,0-0.086-0.007-0.13-0.007H38.234c-0.043,0-0.086,0.007-0.13,0.007H27.367C29.812,174.031,44.968,147.537,67.702,130.182z
	 M474.174,231.41v30.8c0,0.226-0.184,0.408-0.408,0.408H38.234c-0.226,0-0.408-0.182-0.408-0.408v-30.8
	c0-0.219,0.176-0.392,0.392-0.401h435.565C473.999,231.019,474.174,231.192,474.174,231.41z M416.749,403.033H95.251
	c-33.002,0-60.605-23.547-66.89-54.723H298.78c7.46,0,13.509-6.048,13.509-13.509s-6.049-13.509-13.509-13.509H38.992
	c-0.253-0.013-0.501-0.038-0.758-0.038c-0.226,0-0.408-0.184-0.408-0.408v-30.8c0-0.226,0.182-0.408,0.408-0.408h435.532
	c0.224,0,0.408,0.184,0.408,0.408v30.798c0,0.226-0.184,0.408-0.408,0.408c-0.255,0-0.505,0.024-0.758,0.038h-66.155
	c-7.46,0-13.509,6.048-13.509,13.509s6.049,13.509,13.509,13.509h76.785C477.354,379.487,449.751,403.033,416.749,403.033z"/>
</svg>